<?xml version="1.0" encoding="UTF-8" standalone="no"?>
<!-- Created with Inkscape (http://www.inkscape.org/) -->

<svg
   width="210mm"
   height="297mm"
   viewBox="0 0 210 297"
   version="1.1"
   id="svg5"
   inkscape:version="1.2.2 (732a01da63, 2022-12-09)"
   sodipodi:docname="unicorn-car-red.svg"
   inkscape:export-filename="unicorn-car.png"
   inkscape:export-xdpi="193.66127"
   inkscape:export-ydpi="193.66127"
   xmlns:inkscape="http://www.inkscape.org/namespaces/inkscape"
   xmlns:sodipodi="http://sodipodi.sourceforge.net/DTD/sodipodi-0.dtd"
   xmlns="http://www.w3.org/2000/svg"
   xmlns:svg="http://www.w3.org/2000/svg">
  <sodipodi:namedview
     id="namedview7"
     pagecolor="#505050"
     bordercolor="#eeeeee"
     borderopacity="1"
     inkscape:showpageshadow="0"
     inkscape:pageopacity="0"
     inkscape:pagecheckerboard="0"
     inkscape:deskcolor="#505050"
     inkscape:document-units="mm"
     showgrid="false"
     inkscape:zoom="0.71624579"
     inkscape:cx="250.61229"
     inkscape:cy="552.18475"
     inkscape:window-width="1920"
     inkscape:window-height="991"
     inkscape:window-x="-9"
     inkscape:window-y="-9"
     inkscape:window-maximized="1"
     inkscape:current-layer="layer1" />
  <defs
     id="defs2" />
  <g
     inkscape:label="Layer 1"
     inkscape:groupmode="layer"
     id="layer1">
    <g
       id="g1250"
       style="fill:#800000">
      <rect
         style="fill:#800000;stroke-width:1.75266;stroke-linecap:round;stroke-linejoin:round"
         id="rect234-0"
         width="83.854469"
         height="118.20896"
         x="66.678894"
         y="78.615143" />
      <ellipse
         style="fill:#800000;stroke-width:1.91911;stroke-linecap:round;stroke-linejoin:round"
         id="path340-2-6"
         cx="108.61076"
         cy="214.35297"
         rx="40.8153"
         ry="15.330223" />
      <ellipse
         style="opacity:1;fill:#800000;stroke-width:2.96668;stroke-linecap:round;stroke-linejoin:round"
         id="path340-6"
         cx="108.9355"
         cy="69.345001"
         rx="40.6805"
         ry="36.755596" />
    </g>
    <g
       id="g1256">
      <rect
         style="fill:#000000;stroke:#000000;stroke-width:2.5;stroke-linecap:round;stroke-linejoin:round;stroke-dasharray:none"
         id="rect4178-72"
         width="12.190299"
         height="26.966417"
         x="65.010269"
         y="176.02052" />
      <rect
         style="fill:#000000;stroke:#000000;stroke-width:2.5;stroke-linecap:round;stroke-linejoin:round;stroke-dasharray:none"
         id="rect4178-72-8"
         width="12.190299"
         height="26.966417"
         x="140.18137"
         y="175.92075" />
      <rect
         style="fill:#000000;stroke:#000000;stroke-width:2.5;stroke-linecap:round;stroke-linejoin:round;stroke-dasharray:none"
         id="rect4178-7"
         width="12.190299"
         height="26.966417"
         x="140.29829"
         y="73.401001" />
      <rect
         style="fill:#000000;stroke:#000000;stroke-width:2.5;stroke-linecap:round;stroke-linejoin:round;stroke-dasharray:none"
         id="rect4178"
         width="12.190299"
         height="26.966417"
         x="65.014923"
         y="73.401306" />
    </g>
    <ellipse
       style="fill:#404040;stroke-width:2.12349;stroke-linecap:round;stroke-linejoin:round"
       id="path340-7"
       cx="108.70039"
       cy="90.676674"
       rx="36.382462"
       ry="21.055971" />
    <path
       style="fill:#ff0000;stroke:#ff0000;stroke-width:2.23748034;stroke-linejoin:round;stroke-dasharray:none"
       d="m 395.11576,858.41434 c -65.27511,-2.66676 -122.93071,-22.01695 -134.77442,-45.23254 -2.78562,-5.46028 -2.81135,-7.68155 -2.7645,-238.66505 0.026,-128.23442 -0.39225,-233.15349 -0.92948,-233.15349 -0.53722,0 -9.27877,2.20277 -19.42564,4.89504 -10.14688,2.69227 -19.45259,4.50989 -20.67934,4.03914 -7.19405,-2.76061 5.17973,-25.78338 18.34472,-34.13237 5.27381,-3.34455 8.0261,-4.12135 14.60237,-4.12135 h 8.10367 V 289.8879 c 0,-25.57772 2.20249,-40.62187 8.49175,-58.00309 4.01251,-11.08913 4.52914,-11.84277 7.15499,-10.43745 1.63511,0.87508 7.62504,1.29216 14.18522,0.9877 15.50529,-0.71958 26.19118,-5.62249 36.48347,-16.7394 7.95067,-8.58767 11.07464,-15.86279 14.67943,-34.18558 2.31346,-11.75908 1.63078,-14.79158 -3.48228,-15.46841 -2.28981,-0.30311 -4.35774,-0.74557 -4.59541,-0.98324 -0.96878,-0.96878 23.48832,-11.91267 33.92277,-15.17951 17.18357,-5.37988 31.80214,-7.01524 54.92972,-6.14491 16.02588,0.60308 23.2898,1.55862 33.69396,4.43232 13.81068,3.81461 32.11189,11.49761 32.11189,13.48085 0,0.63011 -1.04104,0.74618 -2.31344,0.25792 -2.06834,-0.7937 -2.22682,0.20932 -1.49591,9.46795 2.79951,35.46254 22.94272,57.12736 53.11506,57.12736 6.67341,0 11.1126,-0.70349 13.06396,-2.07027 2.86332,-2.00556 3.09098,-1.73278 7.28249,8.72605 9.04332,22.56532 10.44149,30.55044 10.36493,59.19574 l -0.0697,26.0607 4.70088,-0.76285 c 13.01981,-2.11282 27.63658,8.35533 35.68659,25.55779 3.99753,8.54253 4.13436,9.33611 1.98108,11.48939 -2.15327,2.15327 -3.58163,1.99108 -20.67932,-2.34812 -10.10147,-2.56363 -19.19628,-4.97964 -20.21068,-5.36891 -1.52389,-0.58477 -1.84436,40.14875 -1.84436,234.42271 v 235.13048 l -3.98988,6.29138 c -17.22036,27.15368 -91.23157,46.62995 -165.64463,43.58984 z m 79.58162,-69.04079 c 17.45309,-1.1476 23.10208,-2.01054 25.82912,-3.94567 l 3.49042,-2.47683 0.37144,-37.87339 c 0.46936,-47.85786 1.63912,-45.78199 -23.31202,-41.36991 -30.82303,5.4504 -104.36581,5.39511 -138.31691,-0.10402 -25.04451,-4.0565 -24.51443,-4.04173 -27.78224,-0.77392 -2.91471,2.91471 -2.96973,3.79177 -2.60648,41.54936 l 0.37109,38.57182 3.49043,2.52081 c 8.3885,6.05826 93.71587,8.1592 158.46515,3.90175 z M 287.61077,655.67513 c 6.70737,-3.07118 17.4149,-14.22953 21.68325,-22.59617 7.29408,-14.29759 8.33437,-19.88506 8.33437,-44.76447 v -23.46836 l -19.8954,-10.17016 c -10.94247,-5.59358 -20.68075,-10.37329 -21.64062,-10.62156 -1.37517,-0.3557 -1.74521,11.70766 -1.74521,56.89388 v 57.34528 l 3.83947,-0.0307 c 2.1117,-0.0169 6.35256,-1.18137 9.42414,-2.58779 z M 547.99624,600.2502 c 0,-45.75121 -0.36959,-57.94519 -1.74521,-57.57974 -0.95987,0.25501 -11.9547,5.64511 -24.43295,11.97802 l -22.68775,11.5144 v 17.84864 c 0,19.13496 1.81012,28.9951 7.68421,41.85767 7.55955,16.55322 18.05024,26.58056 31.63178,30.23467 4.10062,1.10327 7.92687,2.04729 8.50279,2.09783 0.57592,0.0505 1.04713,-26.02764 1.04713,-57.95149 z m -23.77525,-59.91267 23.66347,-11.84722 0.40493,-93.91257 c 0.22272,-51.6519 0.38529,-94.03692 0.36128,-94.18891 -0.024,-0.15198 -11.18211,24.35078 -24.79579,54.45059 l -24.75213,54.72692 0.014,51.3092 c 0.007,28.22007 0.33491,51.30921 0.72739,51.30921 0.39247,0 11.36214,-5.33125 24.37706,-11.84722 z m -206.5926,-41.22505 v -51.6761 l -21.98965,-53.60902 c -12.09432,-29.48495 -21.98966,-53.50847 -21.98966,-53.3856 0,0.12287 0.1933,42.80316 0.42957,94.84506 l 0.42957,94.62164 20.51296,10.36663 c 11.28213,5.70163 20.98417,10.39967 21.56009,10.44005 0.57592,0.0403 1.04712,-23.18081 1.04712,-51.60266 z m 34.44671,-69.39631 c 11.04053,-1.96154 22.04027,-2.44275 56.30426,-2.46316 45.15657,-0.0269 62.64569,1.70041 78.80033,7.78266 3.79368,1.42834 7.06802,2.42659 7.27627,2.21832 0.20827,-0.20827 8.79489,-20.45525 19.08137,-44.99331 10.2865,-24.53806 20.67717,-48.7593 23.0904,-53.82496 2.41322,-5.06568 4.38767,-9.85789 4.38767,-10.64936 0,-0.79147 0.92587,-2.20746 2.05747,-3.1466 1.78637,-1.48255 1.79742,-2.2105 0.0838,-5.52424 -8.8993,-17.20945 -31.95921,-34.72982 -57.98799,-44.05795 -22.80849,-8.17403 -37.65924,-10.68904 -67.71419,-11.46753 -24.00225,-0.62171 -30.27718,-0.32163 -44.68543,2.13695 -37.11739,6.3336 -65.09651,19.55635 -83.88871,39.64528 -10.16444,10.86581 -13.08516,16.76474 -10.06084,20.31972 3.38376,3.97751 7.6615,14.28174 25.05343,60.34867 9.13207,24.18863 17.25089,45.59896 18.04182,47.5785 l 1.43805,3.5992 7.50061,-2.53219 c 4.12533,-1.39271 13.6751,-3.6292 21.22171,-4.97 z"
       id="path1107"
       transform="scale(0.26458333)" />
    <g
       id="g1266">
      <path
         style="fill:#1a1a1a;stroke:none;stroke-width:4.98604;stroke-linecap:round;stroke-linejoin:round;stroke-dasharray:none"
         d="m 142.11116,173.07609 c -1.0758,-0.38686 -2.57189,-1.21394 -3.32463,-1.83795 -1.90194,-1.57667 -4.17651,-5.2095 -5.25899,-8.39939 l -0.91187,-2.68717 -0.10437,-21.2933 c -0.0912,-18.60464 -0.0341,-21.34838 0.45215,-21.72944 0.30608,-0.23988 2.9877,-6.49346 5.95914,-13.89686 2.97144,-7.403391 5.46923,-13.532825 5.55065,-13.620962 0.0814,-0.08813 0.14803,18.819362 0.14803,42.016662 0,23.19731 -0.12468,42.17127 -0.27706,42.16436 -0.15238,-0.007 -1.15725,-0.32908 -2.23305,-0.71595 z"
         id="path4499" />
      <path
         style="fill:#1a1a1a;stroke:none;stroke-width:4.96445;stroke-linecap:round;stroke-linejoin:round;stroke-dasharray:none"
         d="m 72.957088,132.18223 c 0,-22.89203 0.06831,-41.550381 0.151803,-41.463005 0.08349,0.08738 2.331944,6.159738 4.99656,13.494145 2.664619,7.3344 5.006661,13.50238 5.204542,13.70662 0.225335,0.23257 0.355032,8.49965 0.347068,22.12274 l -0.01273,21.7514 -1.062522,2.7798 c -0.584387,1.52889 -1.747289,3.7159 -2.584227,4.86002 -1.585352,2.16724 -4.703638,4.36009 -6.20935,4.36658 l -0.831157,0.004 z"
         id="path4570" />
      <path
         style="fill:#1a1a1a;stroke:none;stroke-width:18.469;stroke-linecap:round;stroke-linejoin:round;stroke-dasharray:none"
         d="m 325.85203,442.23646 c -0.81424,-2.11171 -9.85522,-26.14326 -20.09107,-53.40346 -10.23585,-27.26019 -19.2762,-51.29008 -20.08966,-53.39975 -1.39325,-3.61331 -1.17749,-3.96285 3.72064,-6.02749 8.46257,-3.56709 31.78278,-8.66301 51.97132,-11.35673 27.04187,-3.60815 115.4551,-3.59429 141.01292,0.0221 31.20292,4.41516 56.63042,10.88219 55.38431,14.086 -0.3267,0.83996 -11.1691,26.81531 -24.09418,57.723 l -23.50019,56.19579 h -81.41683 -81.41683 z"
         id="path4572"
         transform="scale(0.26458333)" />
      <path
         style="opacity:1;fill:#1a1a1a;stroke:#1a1a1a;stroke-width:18.469;stroke-linecap:round;stroke-linejoin:round;stroke-dasharray:none"
         d="m 371.38089,781.75079 c -5.37525,-0.25879 -18.72611,-1.20774 -29.66859,-2.10878 l -19.8954,-1.63825 v -34.18881 -34.18881 l 3.14138,0.86891 c 33.11708,9.16022 132.10059,10.06238 166.14408,1.51429 l 3.83947,-0.96407 v 33.37945 33.37944 l -19.0422,1.7199 c -18.88787,1.70595 -85.74874,3.1304 -104.51874,2.22673 z"
         id="path8624"
         transform="scale(0.26458333)"
         inkscape:label="path8624" />
    </g>
    <g
       id="g1260">
      <path
         style="opacity:1;fill:#ffe680;stroke:none;stroke-width:4.18851;stroke-linecap:round;stroke-linejoin:round;stroke-dasharray:none"
         d="m 139.37183,57.614478 c -3.97688,-0.610465 -7.54084,-3.030239 -9.58668,-6.508935 -1.63515,-2.780366 -3.2446,-11.452127 -1.98047,-10.670855 0.21207,0.131069 0.62443,0.04008 0.91635,-0.202192 1.56449,-1.298408 10.1606,6.175841 15.26073,13.269071 1.14396,1.591011 1.42917,2.750677 0.88597,3.602389 -0.37857,0.593572 -3.2296,0.858407 -5.4959,0.510522 z"
         id="path8967" />
      <path
         style="fill:#ffe680;stroke:none;stroke-width:4.23179;stroke-linecap:round;stroke-linejoin:round;stroke-dasharray:none"
         d="m 77.480322,58.716505 c 4.059486,-0.610465 7.697478,-3.030238 9.785819,-6.508935 1.669134,-2.780366 3.312005,-11.452127 2.021624,-10.670855 -0.21648,0.13107 -0.637407,0.04008 -0.935394,-0.202192 -1.59699,-1.298408 -10.371672,6.175841 -15.577746,13.269071 -1.16772,1.591011 -1.458853,2.750677 -0.904369,3.60239 0.386427,0.593571 3.296685,0.858406 5.610066,0.510521 z"
         id="path8967-6" />
    </g>
  </g>
</svg>
